<?xml version="1.0" encoding="UTF-8"?>
<svg id="Laag_2" data-name="Laag 2" xmlns="http://www.w3.org/2000/svg" viewBox="0 0 1482.91 247.4">
  <defs>
    <style>
      .cls-1 {
        letter-spacing: .1em;
      }

      .cls-2 {
        font-family: AvenirLTStd-Black, 'Avenir LT Std';
        font-size: 153.53px;
        font-weight: 800;
        letter-spacing: .1em;
      }

      .cls-2, .cls-3, .cls-4 {
        fill: #1d1d1b;
      }

      .cls-3 {
        font-family: Avenir-Book, Avenir;
        font-size: 82.71px;
      }

      .cls-5 {
        letter-spacing: .11em;
      }

      .cls-4, .cls-6 {
        stroke-width: 0px;
      }

      .cls-6 {
        fill: #fff;
      }
    </style>
  </defs>
  <g id="Laag_1-2" data-name="Laag 1">
    <g>
      <g>
        <path class="cls-6" d="m23.44,208.35c-6.24,0-12.69-4.7-12.69-12.57v-58.7c0-3.32,1.35-6.56,3.71-8.89L123.76,19.79c2.36-2.34,5.49-3.63,8.82-3.63h57.79c7.77,0,10.82,5.92,11.57,7.73.75,1.81,2.78,8.16-2.72,13.65L32.13,204.63c-3.07,3.07-6.42,3.71-8.69,3.71h0Z"/>
        <path class="cls-4" d="m190.36,26.66c.54,0,1.35,0,1.87,1.25.52,1.25-.06,1.83-.44,2.21L24.7,197.21c-.59.59-.95.64-1.27.64-.09,0-2.19-.02-2.19-2.07v-58.7c0-.54.22-1.06.6-1.44L131.15,27.25c.38-.38.89-.59,1.43-.59h57.79m0-21h-57.79c-6.07,0-11.9,2.4-16.21,6.68L7.06,120.72c-4.36,4.32-6.81,10.21-6.81,16.35v58.7c0,13.88,11.36,23.07,23.19,23.07,5.66,0,11.42-2.1,16.11-6.79L206.64,44.96c14.5-14.5,4.23-39.31-16.28-39.31h0Z"/>
      </g>
      <g>
        <path class="cls-6" d="m110.35,218.99c-6.88,0-12.55-3.8-15.16-10.17s-1.25-13.05,3.64-17.89l38.04-37.58c3.09-3.05,7.18-4.73,11.52-4.73s8.43,1.68,11.52,4.73l38.04,37.58c4.9,4.84,6.26,11.52,3.64,17.89s-8.28,10.17-15.16,10.17h-76.09Z"/>
        <path class="cls-4" d="m148.39,159.13c1.1,0,2.72.3,4.14,1.7l38.04,37.58c2.32,2.29,1.99,4.76,1.31,6.43-.68,1.67-2.19,3.65-5.45,3.65h-76.09c-3.27,0-4.77-1.99-5.45-3.65-.68-1.67-1.01-4.14,1.31-6.43l38.04-37.58c1.42-1.41,3.04-1.7,4.14-1.7m0-21c-6.83,0-13.66,2.59-18.9,7.76l-38.04,37.58c-17.1,16.89-5.14,46.03,18.9,46.03h76.09c24.04,0,36-29.13,18.9-46.03l-38.04-37.58c-5.24-5.17-12.07-7.76-18.9-7.76h0Z"/>
      </g>
      <g>
        <path class="cls-6" d="m31.53,52.56c-11.6,0-21.03-9.43-21.03-21.03S19.93,10.5,31.53,10.5s21.03,9.43,21.03,21.03-9.43,21.03-21.03,21.03Z"/>
        <path class="cls-4" d="m31.53,21c5.81,0,10.53,4.72,10.53,10.53s-4.72,10.53-10.53,10.53-10.53-4.72-10.53-10.53,4.72-10.53,10.53-10.53m0-21C14.12,0,0,14.12,0,31.53s14.12,31.53,31.53,31.53,31.53-14.12,31.53-31.53S48.94,0,31.53,0h0Z"/>
      </g>
    </g>
    <text class="cls-2" transform="translate(262.22 128.96)"><tspan x="0" y="0">KEVIN BOERE</tspan></text>
    <text class="cls-3" transform="translate(271.56 223.58)"><tspan class="cls-1" x="0" y="0">PO</tspan><tspan class="cls-5" x="133" y="0">R</tspan><tspan class="cls-1" x="190.81" y="0">TFOLIO</tspan></text>
  </g>
</svg>